<svg fill="none" height="200" width="600" xmlns="http://www.w3.org/2000/svg"><path d="M0 0h600v200H0z" fill="#fff"/><path d="M0 0h600v200H0z" fill="#137ec8"/><path d="M157.809 155.046H55.288A5.296 5.296 0 0 1 50 149.758V49.288A5.297 5.297 0 0 1 55.288 44h51.26a5.296 5.296 0 0 1 5.288 5.288v15.486a5.296 5.296 0 0 1-5.288 5.288 5.297 5.297 0 0 1-5.288-5.288v-10.09H60.684v89.678h91.729V54.684h-13.058a5.296 5.296 0 0 1-5.288-5.288 5.296 5.296 0 0 1 5.288-5.288h18.454a5.296 5.296 0 0 1 5.288 5.288v100.362a5.296 5.296 0 0 1-5.288 5.288z" fill="#fff"/><path d="M96.477 81.018c-6.098 0-11.062 4.964-11.062 11.061 0 12.464 12.572 15.702 21.098 28.004 8.202-12.194 21.152-16.025 21.152-28.004 0-6.097-4.965-11.061-11.062-11.061-4.425 0-8.202 2.644-9.982 6.367-1.835-3.831-5.612-6.367-10.144-6.367z" fill="#f65a5b"/><path d="M106.567 120.677c-.162 0-.432-.108-.54-.27-3.291-4.694-7.176-8.04-10.522-11.061-5.72-5.018-10.683-9.389-10.683-17.32 0-6.476 5.287-11.764 11.762-11.764 4.047 0 7.878 2.213 9.983 5.666 2.104-3.453 5.935-5.666 9.982-5.666 6.475 0 11.763 5.288 11.763 11.763 0 7.608-4.964 11.925-10.576 16.943-3.507 3.076-7.5 6.637-10.576 11.331a.637.637 0 0 1-.593.378zm-10.09-39.066c-5.72 0-10.414 4.694-10.414 10.414 0 7.338 4.532 11.331 10.144 16.242 3.291 2.913 6.96 6.097 10.144 10.521 3.076-4.532 6.907-7.877 10.252-10.791 5.504-4.856 10.144-9.011 10.144-15.972 0-5.72-4.694-10.414-10.414-10.414-3.993 0-7.662 2.374-9.442 5.99-.108.27-.378.377-.594.377-.27 0-.54-.162-.594-.377-1.402-3.562-5.126-5.99-9.226-5.99z" fill="#f65a5b"/><path d="M282.066 97.7c0 5-.867 9.567-2.6 13.7-1.734 4.067-4.167 7.567-7.3 10.5-3.067 2.867-6.8 5.1-11.2 6.7-4.334 1.6-9.1 2.4-14.3 2.4h-18.3c-2.2 0-4.1-.767-5.7-2.3-1.534-1.6-2.3-3.5-2.3-5.7V72.3c0-2.2.766-4.067 2.3-5.6 1.6-1.6 3.5-2.4 5.7-2.4h18.3c5.2 0 9.966.8 14.3 2.4 4.4 1.6 8.133 3.867 11.2 6.8 3.133 2.867 5.566 6.367 7.3 10.5 1.733 4.133 2.6 8.7 2.6 13.7zm-14.5 0c0-2.933-.467-5.667-1.4-8.2-.867-2.6-2.167-4.833-3.9-6.7-1.734-1.867-3.934-3.333-6.6-4.4-2.6-1.067-5.6-1.6-9-1.6h-12.1v41.7h12.1c3.266 0 6.2-.533 8.8-1.6 2.6-1.133 4.8-2.633 6.6-4.5 1.8-1.933 3.166-4.167 4.1-6.7.933-2.533 1.4-5.2 1.4-8zm72.277 9.1c0 3.467-.6 6.733-1.8 9.8-1.133 3.067-2.8 5.767-5 8.1-2.2 2.267-4.9 4.1-8.1 5.5-3.133 1.333-6.7 2-10.7 2s-7.567-.667-10.7-2c-3.133-1.4-5.8-3.233-8-5.5-2.2-2.333-3.9-5.033-5.1-8.1-1.133-3.067-1.7-6.333-1.7-9.8 0-3.4.567-6.633 1.7-9.7 1.2-3.067 2.9-5.733 5.1-8 2.2-2.333 4.867-4.167 8-5.5 3.133-1.4 6.7-2.1 10.7-2.1s7.567.7 10.7 2.1c3.2 1.333 5.9 3.167 8.1 5.5 2.2 2.267 3.867 4.933 5 8 1.2 3.067 1.8 6.3 1.8 9.7zm-13.2 0c0-1.867-.3-3.633-.9-5.3-.533-1.733-1.333-3.233-2.4-4.5-1-1.267-2.267-2.267-3.8-3-1.533-.8-3.3-1.2-5.3-1.2s-3.767.4-5.3 1.2c-1.467.733-2.733 1.733-3.8 3s-1.867 2.767-2.4 4.5c-.533 1.667-.8 3.433-.8 5.3 0 1.933.267 3.767.8 5.5.533 1.667 1.333 3.133 2.4 4.4s2.333 2.3 3.8 3.1c1.533.733 3.3 1.1 5.3 1.1s3.767-.367 5.3-1.1c1.533-.8 2.8-1.833 3.8-3.1 1.067-1.267 1.867-2.733 2.4-4.4.6-1.733.9-3.567.9-5.5zm67.922 18.5c0 1.733-.633 3.233-1.9 4.5-1.2 1.2-2.7 1.8-4.5 1.8-1.733 0-3.233-.6-4.5-1.8-1.2-1.267-1.8-2.767-1.8-4.5v-23.5c0-3.4-.8-5.733-2.4-7-1.6-1.333-3.767-2-6.5-2-1.267 0-2.467.167-3.6.5-1.067.333-2.067.767-3 1.3a14.073 14.073 0 0 0-4.4 3.9v26.8c0 1.733-.633 3.233-1.9 4.5-1.2 1.2-2.7 1.8-4.5 1.8-1.733 0-3.233-.6-4.5-1.8-1.2-1.267-1.8-2.767-1.8-4.5v-37c0-1.733.6-3.2 1.8-4.4 1.267-1.2 2.833-1.8 4.7-1.8 1.733 0 3.2.6 4.4 1.8s1.8 2.667 1.8 4.4v.7c.8-.933 1.733-1.833 2.8-2.7a18.363 18.363 0 0 1 3.8-2.4 21.898 21.898 0 0 1 4.7-1.7c1.733-.467 3.6-.7 5.6-.7 5.333 0 9.267 1.4 11.8 4.2 2.6 2.733 3.9 6.467 3.9 11.2zm54.31 0c0 1.733-.6 3.233-1.8 4.5-1.2 1.2-2.667 1.8-4.4 1.8h-1c-1.533 0-2.833-.533-3.9-1.6-1.067-1.133-1.6-2.467-1.6-4-1.667 1.933-3.833 3.467-6.5 4.6-2.667 1.067-5.6 1.6-8.8 1.6-1.933 0-3.9-.333-5.9-1s-3.8-1.633-5.4-2.9c-1.6-1.333-2.933-3-4-5-1-2-1.5-4.367-1.5-7.1 0-2.8.5-5.2 1.5-7.2 1.067-2 2.4-3.6 4-4.8a14.7 14.7 0 0 1 5.4-2.7c2-.6 3.967-.9 5.9-.9 3.2 0 6.133.5 8.8 1.5 2.733 1 4.9 2.467 6.5 4.4V100c0-2.467-.967-4.433-2.9-5.9s-4.5-2.2-7.7-2.2c-1.933 0-3.8.233-5.6.7s-3.533 1.267-5.2 2.4c-.8.467-1.567.7-2.3.7-1.133 0-2.233-.433-3.3-1.3-1-.867-1.5-2.067-1.5-3.6 0-.867.233-1.7.7-2.5.733-1.2 1.9-2.233 3.5-3.1s3.333-1.567 5.2-2.1a45.772 45.772 0 0 1 5.7-1.2c1.933-.267 3.6-.4 5-.4 2.733 0 5.367.3 7.9.9s4.767 1.633 6.7 3.1c2 1.4 3.567 3.267 4.7 5.6 1.2 2.333 1.8 5.233 1.8 8.7zm-12.7-5.9v-6c-1.067-1.4-2.533-2.433-4.4-3.1-1.8-.733-3.733-1.1-5.8-1.1-2.533 0-4.7.633-6.5 1.9-1.733 1.267-2.6 3.067-2.6 5.4 0 2.267.867 4.033 2.6 5.3 1.8 1.2 3.967 1.8 6.5 1.8 2.067 0 4-.333 5.8-1 1.867-.733 3.333-1.8 4.4-3.2zm51.697 7a5.5 5.5 0 0 1-.5 2.3c-.267.667-.767 1.267-1.5 1.8s-1.767.933-3.1 1.2c-1.333.333-3.033.5-5.1.5-4.467 0-7.867-1.1-10.2-3.3-2.333-2.267-3.5-5.567-3.5-9.9V93.8h-3.1c-1.533 0-2.833-.533-3.9-1.6-1.067-1.133-1.6-2.5-1.6-4.1 0-1.467.533-2.733 1.6-3.8s2.367-1.6 3.9-1.6h3.1v-7.5c0-1.733.6-3.2 1.8-4.4 1.267-1.267 2.833-1.9 4.7-1.9 1.733 0 3.2.633 4.4 1.9 1.267 1.2 1.9 2.667 1.9 4.4v7.5h5c1.467 0 2.733.567 3.8 1.7 1.067 1.067 1.6 2.367 1.6 3.9s-.533 2.833-1.6 3.9-2.333 1.6-3.8 1.6h-5v21.8c0 1.933.467 3.3 1.4 4.1 1 .8 2 1.2 3 1.2h1.1c1.8 0 3.167.533 4.1 1.6 1 1.067 1.5 2.367 1.5 3.9zm53.289-21.3c0 1.533-.567 2.9-1.7 4.1-1.133 1.133-2.533 1.7-4.2 1.7h-29.8c.2 1.533.633 3 1.3 4.4a12.967 12.967 0 0 0 2.8 3.5c1.2 1 2.6 1.8 4.2 2.4 1.667.6 3.533.9 5.6.9 1.333 0 2.833-.2 4.5-.6 1.733-.4 3.367-1 4.9-1.8.8-.4 1.633-.6 2.5-.6 1.333 0 2.567.467 3.7 1.4s1.7 2.167 1.7 3.7c0 1.667-.733 2.933-2.2 3.8-2.4 1.467-5.033 2.533-7.9 3.2-2.8.667-5.667 1-8.6 1-3.667 0-7.1-.6-10.3-1.8-3.133-1.2-5.867-2.9-8.2-5.1-2.267-2.2-4.067-4.867-5.4-8-1.267-3.133-1.9-6.633-1.9-10.5 0-3.467.6-6.733 1.8-9.8 1.267-3.133 3-5.833 5.2-8.1s4.833-4.067 7.9-5.4 6.433-2 10.1-2c2.733 0 5.267.4 7.6 1.2 2.4.733 4.567 1.8 6.5 3.2s3.6 3.133 5 5.2c1.467 2 2.633 4.233 3.5 6.7a47.58 47.58 0 0 1 .9 3.6c.333 1.267.5 2.5.5 3.7zm-12.1-2.8c-.067-1.133-.333-2.333-.8-3.6s-1.167-2.4-2.1-3.4c-.933-1.067-2.167-1.933-3.7-2.6-1.467-.733-3.233-1.1-5.3-1.1-2 0-3.733.333-5.2 1-1.4.667-2.567 1.533-3.5 2.6-.933 1-1.667 2.133-2.2 3.4s-.867 2.5-1 3.7z" fill="#fff"/></svg>