<svg height="200" viewBox="0 0 501 200" width="501" xmlns="http://www.w3.org/2000/svg"><g fill="none" fill-rule="evenodd"><path d="m5 5h491v190h-491z" fill="#fff" stroke="#b8d5e6" stroke-width="10"/><g transform="translate(61 51)"><path d="m81.1612063 49.4336781c0 6.2145196-1.8907575 12.1465609-5.1421535 17.2841325l12.9349015 12.9586856c6.4674508-8.6508937 9.9839063-19.1732052 9.9839063-29.9956497 0-11.3520911-3.7815149-21.6095793-10.2489657-29.9779948l-12.6875128 12.6938624c3.3397492 5.0492971 5.1244829 10.9636836 5.1421535 17.0193091z" fill="#b8d5e6"/><path d="m49.3364006 81.3007456c-17.5469362-.0353098-31.7717938-14.282802-31.8071351-31.8670675.0353413-17.6019204 14.2601989-31.8494126 31.8071351-31.8847224 6.4674508 0 12.4047826 1.9067276 17.2642061 5.1375716l12.6698421-12.71151725c-8.6409384-6.47934281-19.1372929-9.99266493-29.9340482-9.97501005-27.2304417 0-49.3364006 22.1392258-49.3364006 49.4336781 0 27.2767974 22.1059589 49.4336781 49.3364006 49.4336781 10.8497672.0353098 21.381463-3.5839416 29.9340482-10.2751431l-12.9349016-12.9586856c-4.594364 3.7781454-10.5140252 5.6672181-16.9991466 5.6672181z" fill="#3faff0"/></g><g transform="translate(220 55)"><g fill="#546070"><path d="m4.94623656 0v30.6048387h13.44190674c7.0768596 0 11.2892761-3.1071243 11.2892761-8.3080343 0-4.1976376-2.6443659-7.0833038-7.1697047-7.7376119 3.6759781-.7449045 5.7804669-3.3252269 5.7804669-6.90882168 0-4.80832517-3.806649-7.65037082-10.1269929-7.65037082zm3.58313299 3.36549208h9.45300635c4.2124164 0 6.6779695 1.74817684 6.6779695 4.8519457 0 3.19436532-2.4655531 4.98616272-6.6779695 4.98616272h-9.45300635zm0 13.15998002h9.45300635c5.109919 0 8.0672073 1.9662795 8.0672073 5.2915064 0 3.4963537-2.9572883 5.4626332-8.0672073 5.4626332h-9.45300635z" fill-rule="nonzero"/><path d="m45.3362829 6.91104973c-6.8607872 0-11.7018743 4.85360367-11.7018743 11.84689447 0 6.9898729 4.7963578 11.8468945 11.7466036 11.8468945 3.9430603 0 7.263351-1.4253188 9.503257-3.9204812l-1.9268008-2.0474004c-1.8373422 1.9140972-4.3937941 2.9395064-7.3080803 2.9395064-4.5727113 0-7.9342906-2.895072-8.5639416-7.4820693h19.2783305c.3578344-7.9742656-3.4063086-13.22777887-11.0274941-13.18334447zm-8.2508364 10.33270687c.5401924-4.453694 3.7675838-7.34876605 8.2508364-7.34876605 4.6174406 0 7.6659148 2.85063765 7.8895613 7.34876605z" fill-rule="nonzero"/><path d="m70.8397587 6.91187987c-6.6882769 0-11.48492 4.85343353-11.48492 11.84647943 0 6.9896279 4.7527301 11.8464794 11.48492 11.8464794 4.0062104 0 7.21861-1.5141345 9.2892736-4.0536424l-1.9828377-2.1361944c-1.6281563 1.958463-4.1379491 3.0282692-7.1746971 3.0282692-4.7966431 0-8.2286074-3.5648812-8.2286074-8.6849118 0-5.1234486 3.4319643-8.6404789 8.2286074-8.6404789 2.8171833 0 5.1513244 1.0253733 6.9112195 2.7172392l1.8916339-2.4506422c-2.1111985-2.22506003-5.1918594-3.51703037-8.9345922-3.47259753z"/><path d="m94.9677419 6.91077003c-6.9335459 0-11.8709677 4.80922597-11.8709677 11.80259937 0 7.0343903 4.9374218 11.8914693 11.8709677 11.8914693 6.9369581 0 11.8709681-4.857079 11.8709681-11.8914693 0-6.9933734-4.93401-11.80259937-11.8709681-11.80259937zm0 3.16171577c4.8930635 0 8.4041951 3.56163 8.4041951 8.6853186 0 5.1647054-3.5111316 8.7297535-8.4041951 8.7297535-4.8896512 0-8.4007825-3.5650481-8.4007825-8.7297535 0-5.1236886 3.5111313-8.6853186 8.4007825-8.6853186z" fill-rule="nonzero"/><path d="m142.672579 6.91077003c-4.47371.04460222-7.750804 2.01053059-9.212578 6.16882937-.97225-3.89068549-3.984185-6.16882937-8.369508-6.16882937-4.208551.04460222-7.353066 1.78751952-8.903226 5.45176297v-5.31795633h-3.413073v23.56026203h3.413073v-11.579421c0-5.0503431 2.879355-8.5396086 7.662417-8.6734153 4.072571 0 6.465802 2.4599837 6.465802 6.6628847v13.5899516h3.49806v-11.579421c0-5.0503431 2.790969-8.5396086 7.621624-8.6734153 4.028378 0 6.465802 2.4599837 6.465802 6.6628847v13.5899516h3.453867v-14.5300291c0-5.678205-3.232901-9.16403957-8.68226-9.16403957z"/><g fill-rule="nonzero"><path d="m167.999509 6.91104973c-6.857347 0-11.698434 4.85360367-11.698434 11.84689447 0 6.9898729 4.796358 11.8468945 11.746604 11.8468945 3.94306 0 7.25991-1.4253188 9.503257-3.9204812l-1.926801-2.0474004c-1.840783 1.9140972-4.393794 2.9395064-7.30808 2.9395064-4.572711 0-7.937731-2.895072-8.563942-7.4820693h19.278331c.357834-7.9742656-3.406309-13.22777887-11.030935-13.18334447zm-8.247396 10.33270687c.536752-4.453694 3.767584-7.34876605 8.247396-7.34876605 4.620881 0 7.669356 2.85063765 7.893002 7.34876605z"/><path d="m211.310988 30.4277632h3.355679l-.044065-15.4430298c-.044064-5.0125998-3.223485-8.07396337-8.965424-8.07396337-3.975971 0-6.494425 1.15439628-9.497588 3.14990137l1.457517 2.5301369c2.430325-1.6856228 4.816585-2.66294358 7.375714-2.66294358 4.108164 0 6.230038 2.03977398 6.230038 5.45869388v1.3723354h-7.64349c-5.474163.0442689-8.697649 2.6186747-8.697649 6.7016279 0 4.0386844 3.091292 7.1443168 7.904488 7.1443168 3.708195 0 6.667293-1.242934 8.52478-3.773071zm-7.863813-2.8400192c-3.26755 0-5.341969-1.6856229-5.341969-4.2600287 0-2.5744059 2.030355-3.773071 5.918197-3.773071h7.24352v2.7957502c-.884678 3.2384392-3.887841 5.2373495-7.819748 5.2373495z"/></g></g><g fill="#b8d5e6"><path d="m16.9869255 44.4263788c-8.86230236 0-14.71636235 4.3103183-14.71636235 11.0875272 0 13.0286869 19.51804505 9.1429973 19.51804505 15.6573408 0 2.1029231-1.844198 3.2049357-4.8016827 3.2049357-3.850821 0-9.54922385-2.2073953-13.34590322-5.5168031l-3.64102228 7.1984675c4.37870152 3.5722732 10.7098843 5.8841406 16.8820262 5.8841406 8.2295225 0 14.7738878-3.8890597 14.7738878-11.2425504 0-13.2949224-19.521429-9.6687281-19.521429-16.0280484 0-1.7861366 1.6343994-2.6792049 4.0640035-2.6792049 3.0048586 0 7.9114406 1.5771923 11.8164032 3.8351386l3.5361229-7.3029397c-3.8000632-2.4702606-9.2345258-4.0980039-14.5640891-4.0980039z"/><path d="m54.0531995 53.3116545c-3.5518648 0-6.4268648 1.4603151-8.4105478 4.0133603v-3.6992422h-9.0405012v38.1887435h9.0405012v-13.8579558c1.983683 2.6065121 4.9625583 4.0634855 8.6182984 4.0634855 7.8911713 0 13.0078671-5.677518 13.0078671-14.2221992 0-8.7017403-5.2741841-14.4861921-13.2156177-14.4861921zm-2.1947844 21.5705582c-3.6557401 0-6.2157634-2.9707554-6.2157634-7.3450173 0-4.2740115 2.5600233-7.2948921 6.2157634-7.2948921 3.7629662 0 6.3229895 3.0208806 6.3229895 7.2948921 0 4.3241367-2.5600233 7.3450173-6.3229895 7.3450173z" fill-rule="nonzero"/><path d="m85.5949388 53.3116545c-9.213692 0-15.3583797 5.6654134-15.3583797 14.290172 0 8.6247587 6.1446877 14.340161 15.3583797 14.340161 9.1635994 0 15.3082872-5.7154023 15.3082872-14.340161 0-8.6247586-6.1446878-14.290172-15.3082872-14.290172zm0 7.1184253c3.6968311 0 6.2482122 2.9626779 6.2482122 7.2750572 0 4.3657009-2.5513811 7.2750573-6.2482122 7.2750573-3.7469237 0-6.2983049-2.9093564-6.2983049-7.2750573 0-4.3123793 2.5513812-7.2750572 6.2983049-7.2750572z" fill-rule="nonzero"/><path d="m124.263421 53.3116545c-4.175258.0537092-7.407068 1.7287632-9.390985 5.0251622v-4.6055595h-9.022974v28.2107303h9.022974v-14.917716c.364666-3.3501081 2.452295-5.7032402 5.737635-5.7032402 3.024385 0 4.954773 2.0409476 4.954773 5.3373466v15.2836096h8.97279v-17.7945123c0-6.5961548-4.0682-10.8358207-10.274213-10.8358207z"/><path d="m151.467183 53.3116545c-6.591115 0-11.548824 3.1023376-11.548824 8.8363589-.050727 9.767723 14.660073 7.649781 14.660073 11.7331996 0 1.2893262-1.318899 1.9091308-3.111249 1.9091308-3.165359 0-6.854895-1.2396092-10.070981-3.4602995l-2.901578 5.6843043c3.429138 2.5819669 8.01485 3.9276389 12.759506 3.9276389 6.854895 0 11.971548-3.1520545 11.971548-8.8893902.050727-9.7146916-14.923854-7.8552778-14.923854-11.6801683 0-1.2893262 1.159955-1.9091308 2.796743-1.9091308 2.370637 0 5.535996.9810811 8.961752 2.790778l3.11125-5.7903672c-3.479865-2.0151936-7.592126-3.1520545-11.704386-3.1520545z"/><path d="m181.555268 53.3116545c-9.217032 0-15.36172 5.6654134-15.36172 14.290172 0 8.6247587 6.144688 14.340161 15.36172 14.340161 9.163599 0 15.304947-5.7154023 15.304947-14.340161 0-8.6247586-6.141348-14.290172-15.304947-14.290172zm0 7.1184253c3.696831 0 6.248212 2.9626779 6.248212 7.2750572 0 4.3657009-2.551381 7.2750573-6.248212 7.2750573-3.750264 0-6.301645-2.9093564-6.301645-7.2750573 0-4.3123793 2.551381-7.2750572 6.301645-7.2750572z" fill-rule="nonzero"/><path d="m211.152341 53.7312572h-9.345889v28.2107303h9.345889v-14.4981133c.484961-3.9778338 4.049424-6.4383841 9.44981-5.9684291v-8.1637906c-4.156808.0537092-7.451078 1.8865339-9.44981 5.1829329z"/></g></g></g></svg>