<?xml version="1.0" encoding="utf-8"?>
<!-- Generator: Adobe Illustrator 16.0.0, SVG Export Plug-In . SVG Version: 6.00 Build 0)  -->
<!DOCTYPE svg PUBLIC "-//W3C//DTD SVG 1.1//EN" "http://www.w3.org/Graphics/SVG/1.1/DTD/svg11.dtd">
<svg version="1.1" id="Layer_1" xmlns="http://www.w3.org/2000/svg" xmlns:xlink="http://www.w3.org/1999/xlink" x="0px" y="0px"
	 width="121.279px" height="30px" viewBox="0 0 121.279 30" enable-background="new 0 0 121.279 30" xml:space="preserve">
<g>
	<g>
		<path fill="#FFFFFF" d="M29.778,30h21.979v-6.747H37.51V18.17h13.935v-6.746H37.51V6.747h14.248V0H29.778V30z M56.185,30h21.979
			v-6.747H63.916V18.17H77.85v-6.746H63.916V6.747h14.249V0H56.185V30z M25.441,9.985C25.441,4.407,21.666,0,15.013,0H0v6.747
			h13.846c2.021,0,3.729,1.169,3.729,3.193c0,2.114-1.708,3.238-3.729,3.238H0V30h7.731V19.926h3.956L16.721,30h8.854l-6.113-11.021
			C22.25,17.991,25.441,15.202,25.441,9.985z M102.683,16.507L90.547,0h-7.956v30h7.731V12.639L102.998,30h7.462V0h-7.775
			L102.683,16.507L102.683,16.507z M114.557,23.277V30h6.722v-6.723H114.557z"/>
	</g>
</g>
</svg>
