<svg fill="none" height="200" viewBox="0 0 600 200" width="600" xmlns="http://www.w3.org/2000/svg"><path d="m0 0h600v200h-600z" fill="#fff"/><path d="m0 0h600v200h-600z" fill="#137ec8"/><path d="m157.809 155.046h-102.5211c-2.9137 0-5.2879-2.374-5.2879-5.288v-100.4701c0-2.9137 2.3742-5.2879 5.2879-5.2879h51.2601c2.914 0 5.288 2.3742 5.288 5.2879v15.4861c0 2.9137-2.374 5.2879-5.288 5.2879-2.913 0-5.288-2.3742-5.288-5.2879v-10.0902h-40.5763v89.6782h91.7293v-89.6782h-13.058c-2.914 0-5.288-2.3742-5.288-5.288 0-2.9137 2.374-5.2879 5.288-5.2879h18.454c2.914 0 5.288 2.3742 5.288 5.2879v100.3622c0 2.914-2.374 5.288-5.288 5.288z" fill="#fff"/><path d="m96.4766 81.0176c-6.0973 0-11.0615 4.9641-11.0615 11.0614 0 12.464 12.5723 15.702 21.0979 28.004 8.202-12.194 21.152-16.025 21.152-28.004 0-6.0973-4.965-11.0614-11.062-11.0614-4.425 0-8.202 2.6439-9.982 6.3671-1.835-3.8311-5.612-6.3671-10.1444-6.3671z" fill="#f65a5b"/><path d="m106.567 120.677c-.162 0-.432-.108-.54-.27-3.291-4.694-7.1762-8.04-10.5216-11.061-5.7196-5.018-10.6838-9.389-10.6838-17.3209 0-6.475 5.2879-11.7629 11.7629-11.7629 4.0465 0 7.8775 2.2123 9.9825 5.6656 2.104-3.4533 5.935-5.6656 9.982-5.6656 6.475 0 11.763 5.2879 11.763 11.7629 0 7.6081-4.964 11.9249-10.576 16.9429-3.507 3.076-7.5 6.637-10.576 11.331-.162.324-.431.378-.593.378zm-10.0904-39.0658c-5.7196 0-10.414 4.6943-10.414 10.4139 0 7.3384 4.5325 11.3309 10.1442 16.2419 3.2915 2.913 6.9602 6.097 10.1442 10.521 3.076-4.532 6.907-7.877 10.252-10.791 5.504-4.856 10.144-9.0113 10.144-15.9719 0-5.7196-4.694-10.4139-10.414-10.4139-3.993 0-7.662 2.3741-9.442 5.9893-.108.2698-.378.3777-.594.3777-.27 0-.54-.1618-.594-.3777-1.402-3.5612-5.126-5.9893-9.2264-5.9893z" fill="#f65a5b"/><path d="m282.066 97.7c0 5-.867 9.567-2.6 13.7-1.734 4.067-4.167 7.567-7.3 10.5-3.067 2.867-6.8 5.1-11.2 6.7-4.334 1.6-9.1 2.4-14.3 2.4h-18.3c-2.2 0-4.1-.767-5.7-2.3-1.534-1.6-2.3-3.5-2.3-5.7v-50.7c0-2.2.766-4.0667 2.3-5.6 1.6-1.6 3.5-2.4 5.7-2.4h18.3c5.2 0 9.966.8 14.3 2.4 4.4 1.6 8.133 3.8667 11.2 6.8 3.133 2.8667 5.566 6.3667 7.3 10.5 1.733 4.1333 2.6 8.7 2.6 13.7zm-14.5 0c0-2.9333-.467-5.6667-1.4-8.2-.867-2.6-2.167-4.8333-3.9-6.7-1.734-1.8667-3.934-3.3333-6.6-4.4-2.6-1.0667-5.6-1.6-9-1.6h-12.1v41.7h12.1c3.266 0 6.2-.533 8.8-1.6 2.6-1.133 4.8-2.633 6.6-4.5 1.8-1.933 3.166-4.167 4.1-6.7.933-2.533 1.4-5.2 1.4-8zm72.277 9.1c0 3.467-.6 6.733-1.8 9.8-1.133 3.067-2.8 5.767-5 8.1-2.2 2.267-4.9 4.1-8.1 5.5-3.133 1.333-6.7 2-10.7 2s-7.567-.667-10.7-2c-3.133-1.4-5.8-3.233-8-5.5-2.2-2.333-3.9-5.033-5.1-8.1-1.133-3.067-1.7-6.333-1.7-9.8 0-3.4.567-6.633 1.7-9.7 1.2-3.0667 2.9-5.7333 5.1-8 2.2-2.3333 4.867-4.1667 8-5.5 3.133-1.4 6.7-2.1 10.7-2.1s7.567.7 10.7 2.1c3.2 1.3333 5.9 3.1667 8.1 5.5 2.2 2.2667 3.867 4.9333 5 8 1.2 3.067 1.8 6.3 1.8 9.7zm-13.2 0c0-1.867-.3-3.633-.9-5.3-.533-1.7333-1.333-3.2333-2.4-4.5-1-1.2667-2.267-2.2667-3.8-3-1.533-.8-3.3-1.2-5.3-1.2s-3.767.4-5.3 1.2c-1.467.7333-2.733 1.7333-3.8 3s-1.867 2.7667-2.4 4.5c-.533 1.667-.8 3.433-.8 5.3 0 1.933.267 3.767.8 5.5.533 1.667 1.333 3.133 2.4 4.4s2.333 2.3 3.8 3.1c1.533.733 3.3 1.1 5.3 1.1s3.767-.367 5.3-1.1c1.533-.8 2.8-1.833 3.8-3.1 1.067-1.267 1.867-2.733 2.4-4.4.6-1.733.9-3.567.9-5.5zm67.922 18.5c0 1.733-.633 3.233-1.9 4.5-1.2 1.2-2.7 1.8-4.5 1.8-1.733 0-3.233-.6-4.5-1.8-1.2-1.267-1.8-2.767-1.8-4.5v-23.5c0-3.4-.8-5.7333-2.4-7-1.6-1.3333-3.767-2-6.5-2-1.267 0-2.467.1667-3.6.5-1.067.3333-2.067.7667-3 1.3s-1.767 1.1333-2.5 1.8-1.367 1.3667-1.9 2.1v26.8c0 1.733-.633 3.233-1.9 4.5-1.2 1.2-2.7 1.8-4.5 1.8-1.733 0-3.233-.6-4.5-1.8-1.2-1.267-1.8-2.767-1.8-4.5v-37c0-1.7333.6-3.2 1.8-4.4 1.267-1.2 2.833-1.8 4.7-1.8 1.733 0 3.2.6 4.4 1.8s1.8 2.6667 1.8 4.4v.7c.8-.9333 1.733-1.8333 2.8-2.7 1.133-.9333 2.4-1.7333 3.8-2.4 1.467-.7333 3.033-1.3 4.7-1.7 1.733-.4667 3.6-.7 5.6-.7 5.333 0 9.267 1.4 11.8 4.2 2.6 2.7333 3.9 6.4667 3.9 11.2zm54.31 0c0 1.733-.6 3.233-1.8 4.5-1.2 1.2-2.667 1.8-4.4 1.8 0 0-.167 0-.5 0s-.5 0-.5 0c-1.533 0-2.833-.533-3.9-1.6-1.067-1.133-1.6-2.467-1.6-4-1.667 1.933-3.833 3.467-6.5 4.6-2.667 1.067-5.6 1.6-8.8 1.6-1.933 0-3.9-.333-5.9-1s-3.8-1.633-5.4-2.9c-1.6-1.333-2.933-3-4-5-1-2-1.5-4.367-1.5-7.1 0-2.8.5-5.2 1.5-7.2 1.067-2 2.4-3.6 4-4.8 1.6-1.267 3.4-2.167 5.4-2.7 2-.6 3.967-.9 5.9-.9 3.2 0 6.133.5 8.8 1.5 2.733 1 4.9 2.467 6.5 4.4v-6.5c0-2.4667-.967-4.4333-2.9-5.9s-4.5-2.2-7.7-2.2c-1.933 0-3.8.2333-5.6.7s-3.533 1.2667-5.2 2.4c-.8.4667-1.567.7-2.3.7-1.133 0-2.233-.4333-3.3-1.3-1-.8667-1.5-2.0667-1.5-3.6 0-.8667.233-1.7.7-2.5.733-1.2 1.9-2.2333 3.5-3.1s3.333-1.5667 5.2-2.1c1.933-.5333 3.833-.9333 5.7-1.2 1.933-.2667 3.6-.4 5-.4 2.733 0 5.367.3 7.9.9s4.767 1.6333 6.7 3.1c2 1.4 3.567 3.2667 4.7 5.6 1.2 2.3333 1.8 5.2333 1.8 8.7zm-12.7-5.9v-6c-1.067-1.4-2.533-2.433-4.4-3.1-1.8-.733-3.733-1.1-5.8-1.1-2.533 0-4.7.633-6.5 1.9-1.733 1.267-2.6 3.067-2.6 5.4 0 2.267.867 4.033 2.6 5.3 1.8 1.2 3.967 1.8 6.5 1.8 2.067 0 4-.333 5.8-1 1.867-.733 3.333-1.8 4.4-3.2zm51.697 7c0 .8-.167 1.567-.5 2.3-.267.667-.767 1.267-1.5 1.8s-1.767.933-3.1 1.2c-1.333.333-3.033.5-5.1.5-4.467 0-7.867-1.1-10.2-3.3-2.333-2.267-3.5-5.567-3.5-9.9v-25.2h-3.1c-1.533 0-2.833-.5333-3.9-1.6-1.067-1.1333-1.6-2.5-1.6-4.1 0-1.4667.533-2.7333 1.6-3.8s2.367-1.6 3.9-1.6h3.1v-7.5c0-1.7333.6-3.2 1.8-4.4 1.267-1.2667 2.833-1.9 4.7-1.9 1.733 0 3.2.6333 4.4 1.9 1.267 1.2 1.9 2.6667 1.9 4.4v7.5h5c1.467 0 2.733.5667 3.8 1.7 1.067 1.0667 1.6 2.3667 1.6 3.9s-.533 2.8333-1.6 3.9-2.333 1.6-3.8 1.6h-5v21.8c0 1.933.467 3.3 1.4 4.1 1 .8 2 1.2 3 1.2h.5.6c1.8 0 3.167.533 4.1 1.6 1 1.067 1.5 2.367 1.5 3.9zm53.289-21.3c0 1.533-.567 2.9-1.7 4.1-1.133 1.133-2.533 1.7-4.2 1.7h-29.8c.2 1.533.633 3 1.3 4.4.733 1.333 1.667 2.5 2.8 3.5 1.2 1 2.6 1.8 4.2 2.4 1.667.6 3.533.9 5.6.9 1.333 0 2.833-.2 4.5-.6 1.733-.4 3.367-1 4.9-1.8.8-.4 1.633-.6 2.5-.6 1.333 0 2.567.467 3.7 1.4s1.7 2.167 1.7 3.7c0 1.667-.733 2.933-2.2 3.8-2.4 1.467-5.033 2.533-7.9 3.2-2.8.667-5.667 1-8.6 1-3.667 0-7.1-.6-10.3-1.8-3.133-1.2-5.867-2.9-8.2-5.1-2.267-2.2-4.067-4.867-5.4-8-1.267-3.133-1.9-6.633-1.9-10.5 0-3.467.6-6.733 1.8-9.8 1.267-3.1333 3-5.8333 5.2-8.1s4.833-4.0667 7.9-5.4 6.433-2 10.1-2c2.733 0 5.267.4 7.6 1.2 2.4.7333 4.567 1.8 6.5 3.2s3.6 3.1333 5 5.2c1.467 2 2.633 4.2333 3.5 6.7.333 1.1333.633 2.333.9 3.6.333 1.267.5 2.5.5 3.7zm-12.1-2.8c-.067-1.133-.333-2.3333-.8-3.6s-1.167-2.4-2.1-3.4c-.933-1.0667-2.167-1.9333-3.7-2.6-1.467-.7333-3.233-1.1-5.3-1.1-2 0-3.733.3333-5.2 1-1.4.6667-2.567 1.5333-3.5 2.6-.933 1-1.667 2.1333-2.2 3.4s-.867 2.5-1 3.7z" fill="#fff"/></svg>