<svg width="600" height="200" fill="none" xmlns="http://www.w3.org/2000/svg"><path fill="#fff" d="M0 0H600V200H0z"/><path fill="#F29C3B" d="M0 0H600V200H0z"/><path fill-rule="evenodd" clip-rule="evenodd" d="M475.829 51.193c2.158-.406 4.341-.787 6.499-1.193v49.889c.026 1.447-.05 3.63.102 5.078.33 2.361 1.295 4.24 3.986 4.544 1.371.178 2.717-.228 3.986-.711.533 1.498 1.092 2.996 1.625 4.494-2.209 1.041-4.621 1.549-7.058 1.701-1.371.076-2.793 0-4.113-.431-3.275-1.067-4.9-4.012-5.027-7.338V51.193zm-19.346-.38c1.422-.28 2.97.05 4.138.888a5.473 5.473 0 0 1 2.057 2.818c.381 1.27.304 2.666-.229 3.86a5.51 5.51 0 0 1-3.148 2.894c-1.346.482-2.894.406-4.164-.229-1.066-.533-1.98-1.396-2.513-2.488-.66-1.32-.737-2.945-.229-4.316.66-1.752 2.26-3.098 4.088-3.428zM402.582 70.92c1.625-.507 3.326-.838 5.027-.761 1.574.05 3.149.507 4.443 1.421 1.321.94 2.285 2.285 2.92 3.758 2.184-1.676 4.875-3.072 7.82-4.088 1.701-.609 4.037-.99 5.839-.914a7.98 7.98 0 0 1 4.266 1.397c1.015.685 1.853 1.625 2.538 2.615.559.787 1.041 1.625 1.371 2.539.229.634.28 1.32.33 2.005 0 11.298.051 22.622.051 33.92 0 .406-.228.939-.711.939h-4.671c-.279 0-.584-.025-.787-.228-.203-.178-.279-.457-.254-.711v-29.35c0-.761.076-1.548-.076-2.31-.127-.736-.432-1.422-.787-2.082-.584-1.066-1.447-2.031-2.539-2.59-1.346-.71-2.539-.761-4.012-.431-2.437.533-4.823 1.955-6.88 3.554v32.549c-.025.33.051.685-.076 1.015-.152.356-.559.559-.914.559h-4.545c-.33 0-.685-.026-.964-.254-.229-.178-.305-.508-.305-.787V81.482c-.203-1.549-.711-3.148-1.777-4.316-.838-.94-2.082-1.422-3.326-1.447-1.727-.051-3.402.533-4.951 1.244-1.473.71-2.869 1.6-4.164 2.64l-.228 32.472c0 .457.025.914-.127 1.346-.102.279-.33.533-.635.533h-4.824c-.254 0-.533-.051-.711-.254-.177-.228-.203-.558-.203-.837V87.575c-.025-2.107.026-4.189-.025-6.296-.076-1.752-.229-3.504-.686-5.205a10.249 10.249 0 0 0-.838-2.056c-.152-.28-.177-.61-.025-.889.178-.33.508-.482.812-.66 1.143-.584 2.26-1.142 3.377-1.726.305-.178.736-.33 1.067-.127.33.203.38.634.482.964.457 1.27.889 2.565 1.32 3.834 2.564-1.93 5.357-3.504 8.378-4.494zm-41.662-.152c3.605-.787 7.413-.356 10.866.863.939.305 1.828.686 2.717 1.092.482.254.939.66 1.066 1.193.076.33.076.686-.076.99-.432.914-.889 1.828-1.321 2.742-.152.33-.456.559-.787.686-.38.127-.787.025-1.142-.153a24.926 24.926 0 0 0-4.164-1.548c-1.777-.457-3.681-.686-5.509-.33-1.32.254-2.615.863-3.529 1.853-1.092 1.117-1.625 2.767-1.422 4.316.178 1.752 1.193 3.326 2.564 4.392.533.432 1.143.787 1.752 1.092l8.988 4.646c2.412 1.524 4.468 3.682 5.56 6.322.711 1.727.99 3.631.787 5.484-.254 2.412-1.422 4.672-3.072 6.423-.279.254-.533.508-.813.762a13.874 13.874 0 0 1-4.138 2.437c-1.625.635-3.377.94-5.128 1.041-4.317.203-8.556-.99-12.466-2.742-.457-.228-.965-.38-1.321-.736-.38-.355-.482-.939-.33-1.422.204-.634.534-1.244.787-1.853.28-.609.483-1.32.991-1.777.254-.254.634-.381.964-.203.686.304 1.346.66 2.032.939a25.77 25.77 0 0 0 4.341 1.473c2.183.507 4.468.66 6.677.38a6.485 6.485 0 0 0 3.453-2.183 6.038 6.038 0 0 0 1.396-4.443c-.152-1.447-.863-2.793-1.878-3.808-.864-.889-1.955-1.524-3.098-2.057a724.29 724.29 0 0 1-4.468-2.209c-.66-.355-1.371-.533-2.057-.863-2.843-1.27-5.357-3.402-6.829-6.195a11.606 11.606 0 0 1-1.32-4.671 10.459 10.459 0 0 1 1.066-5.256c1.295-2.716 3.732-4.747 6.449-5.94.787-.356 1.599-.534 2.412-.737zm145.452.94a15.336 15.336 0 0 1 6.042-1.067c2.133.025 4.291.406 6.246 1.244a13.832 13.832 0 0 1 4.29 2.818c2.615 2.488 4.215 5.865 5.053 9.318.812 3.224 1.015 6.576.965 9.876h-26.989c.026 3.453.864 7.007 2.869 9.851.737 1.092 1.676 2.006 2.692 2.818 1.599 1.219 3.529 2.031 5.534 2.361 2.057.356 4.189.28 6.22-.203a21.144 21.144 0 0 0 6.652-2.716l1.295 2.97c.229.559.533 1.117.711 1.701a23.826 23.826 0 0 1-5.103 2.514c-1.727.66-3.504 1.091-5.332 1.371a21.76 21.76 0 0 1-6.905-.204c-3.504-.634-6.83-2.361-9.318-4.9-2.488-2.538-4.189-5.763-5.154-9.165-.787-2.716-1.117-5.535-1.117-8.353 0-4.341.888-8.759 2.996-12.593 1.853-3.376 4.773-6.245 8.353-7.642zm.482 6.093c-1.625 1.117-2.818 2.767-3.605 4.57-.813 1.878-1.168 3.935-1.193 5.991h19.879a16.9 16.9 0 0 0-.889-5.255c-.584-1.625-1.447-3.148-2.665-4.392-1.295-1.32-2.996-2.234-4.824-2.488-2.311-.33-4.773.203-6.703 1.574zm-60.121-5.713c-.025-.304.28-.533.584-.482h13.609c.304-.026.584.228.533.533v40.8c.025.33-.229.66-.584.66h-5.357c-.229 0-.482 0-.609-.178-.127-.127-.153-.305-.153-.457v-35.95h-7.489c-.254.025-.508-.203-.508-.483-.026-1.498-.026-2.97-.026-4.443zm-203.77 45.624c2.311-.051 4.647.076 6.906.558.889.203 1.777.432 2.59.838.431.229.888.559 1.041 1.041.33 1.016.304 2.082.279 3.123-.076 1.625-.355 3.25-.711 4.824-.812 3.503-2.158 6.931-4.037 10.003-1.193 1.929-2.615 3.757-4.341 5.255-.432.407-.914.813-1.523.864-.331.05-.686-.102-.813-.407-.127-.33-.076-.685.051-1.015 1.447-3.631 2.869-7.287 3.884-11.07.254-.939.457-1.904.61-2.843.152-1.143.304-2.311-.026-3.428-.152-.558-.584-.99-1.091-1.244-.864-.431-1.828-.609-2.768-.736-2.336-.279-4.722-.178-7.058-.051-2.615.178-5.23.457-7.82.787-.38.051-.812 0-1.091-.279-.254-.254-.229-.66-.077-.939.254-.508.711-.838 1.168-1.117 2.006-1.346 4.24-2.285 6.551-2.92 2.691-.838 5.484-1.193 8.276-1.244z" fill="#fff"/><path fill-rule="evenodd" clip-rule="evenodd" d="M110.942 120.555c.431-.101.914 0 1.295.203 1.498.813 2.945 1.676 4.443 2.463 11.425 6.068 23.738 10.46 36.407 13.202a147.62 147.62 0 0 0 22.368 3.022c15.055.888 30.238-.864 44.785-4.824a141.122 141.122 0 0 0 16.63-5.687c.559-.229 1.117-.508 1.752-.559.863-.102 1.828.279 2.259 1.066.356.584.305 1.346-.076 1.93-.406.66-1.091 1.066-1.701 1.498-6.347 4.544-13.405 7.997-20.717 10.638a110.844 110.844 0 0 1-15.589 4.341c-7.566 1.524-15.284 2.285-23.002 2.133a107.208 107.208 0 0 1-22.393-2.742 104.905 104.905 0 0 1-35.036-15.208c-3.834-2.564-7.465-5.408-10.917-8.454-.407-.407-.914-.711-1.219-1.219-.229-.381-.279-.863-.051-1.27.178-.253.457-.431.762-.533zM83.674 69.752c2.463-.837 5.078-1.218 7.693-1.294a23.997 23.997 0 0 1 6.322.634c1.65.407 3.25.965 4.722 1.803 2.235 1.244 4.063 3.199 5.002 5.586.685 1.751.939 3.655 1.015 5.534.077 1.777.051 3.58.051 5.357v11.12c0 1.498-.051 3.022.356 4.469.381 1.422 1.168 2.691 2.031 3.859.406.584.914 1.092 1.117 1.777.152.483.051 1.067-.356 1.397-1.929 1.65-3.859 3.3-5.737 4.976-.432.355-.838.812-1.397.99-.508.127-1.092.076-1.498-.279-.99-.864-1.98-1.778-2.792-2.793-.66-.863-1.245-1.777-1.854-2.666-1.828 1.853-3.834 3.631-6.22 4.722-1.625.762-3.402 1.143-5.205 1.295-1.93.153-3.884.153-5.788-.279-1.575-.355-3.072-.99-4.367-1.93-1.117-.787-2.057-1.828-2.768-2.97-1.142-1.828-1.752-3.961-1.93-6.093-.228-2.615.077-5.332 1.093-7.77.964-2.36 2.665-4.417 4.747-5.915 1.397-1.016 2.97-1.752 4.596-2.31 1.32-.457 2.69-.737 4.062-1.016 3.351-.635 6.753-.888 10.13-1.27-.025-1.624.101-3.249-.153-4.874-.177-.94-.482-1.879-1.117-2.615-.939-1.142-2.437-1.701-3.884-1.828-1.777-.127-3.63.28-5.078 1.371-.965.71-1.675 1.777-2.03 2.92-.179.431-.204.94-.433 1.345-.203.381-.558.762-.99.864-.254.076-.507 0-.761 0-2.285-.254-4.545-.483-6.83-.737-.38-.05-.762-.025-1.117-.203-.38-.178-.71-.457-.863-.838-.178-.406-.051-.863.05-1.294.458-2.108 1.32-4.139 2.616-5.84 1.853-2.513 4.62-4.24 7.565-5.205zm6.373 24.45c-1.422.431-2.818 1.117-3.86 2.209-.355.33-.608.736-.888 1.117-.888 1.447-1.168 3.224-1.066 4.9.076 1.371.457 2.767 1.371 3.833a4.575 4.575 0 0 0 3.072 1.6c1.473.178 3.021-.279 4.19-1.193 1.142-.813 1.98-1.981 2.589-3.225.584-1.218.914-2.539 1.066-3.859.203-2.056.127-4.138.153-6.195-2.235 0-4.494.153-6.627.813zM195.131 69.27c2.082-.558 4.24-.787 6.398-.838 1.853-.05 3.732.153 5.56.533 1.574.356 3.098.838 4.545 1.575 1.218.609 2.361 1.396 3.3 2.386 1.067 1.04 1.879 2.336 2.412 3.732.635 1.701.863 3.555.94 5.357.076 1.879.025 3.783.05 5.662v12.415c0 1.396.229 2.818.787 4.113.584 1.295 1.473 2.437 2.336 3.58.33.457.584 1.041.432 1.625-.076.304-.254.533-.483.736a479.87 479.87 0 0 0-5.357 4.595c-.406.33-.761.737-1.218 1.016-.584.406-1.473.381-2.006-.102-1.117-.965-2.183-1.98-3.047-3.173a70.311 70.311 0 0 1-1.548-2.26c-1.955 1.98-4.088 3.859-6.678 4.925-1.751.737-3.63 1.041-5.534 1.143-1.93.102-3.859.025-5.713-.508-1.523-.431-2.97-1.142-4.164-2.158a10.962 10.962 0 0 1-2.615-3.199c-.837-1.599-1.32-3.351-1.523-5.154-.33-3.199.127-6.55 1.701-9.368 1.447-2.666 3.834-4.773 6.576-6.068 1.523-.736 3.173-1.244 4.824-1.6 3.783-.863 7.642-1.142 11.475-1.548-.05-1.854.178-3.758-.304-5.56a5.022 5.022 0 0 0-1.295-2.285c-.99-.94-2.387-1.397-3.732-1.473-1.727-.076-3.504.33-4.9 1.371-1.117.813-1.854 2.056-2.184 3.402-.076.406-.203.838-.457 1.168-.254.355-.66.635-1.117.61l-7.896-.838c-.787-.102-1.548-.813-1.396-1.65.508-2.946 1.828-5.764 3.961-7.871 2.107-2.184 4.95-3.53 7.87-4.291zm4.697 24.932c-1.676.533-3.301 1.422-4.342 2.869-.863 1.117-1.244 2.513-1.371 3.884-.101 1.422.026 2.92.661 4.24.507 1.066 1.396 1.955 2.513 2.361 1.498.559 3.199.406 4.595-.33 1.448-.761 2.514-2.056 3.276-3.478a11.483 11.483 0 0 0 1.244-4.164c.228-2.056.127-4.138.152-6.195-2.26 0-4.545.153-6.728.813zm-64.944-24.17c1.371-.686 2.894-1.041 4.392-1.143 1.625-.101 3.3.026 4.849.533 1.879.584 3.478 1.828 4.697 3.352.965 1.218 1.726 2.615 2.336 4.037a13.534 13.534 0 0 1 2.132-3.707 11.423 11.423 0 0 1 4.291-3.225c3.148-1.345 6.83-1.37 10.003-.076 2.26.914 4.215 2.565 5.433 4.697.813 1.447 1.219 3.123 1.397 4.773.228 1.93.152 3.885.152 5.814-.051 4.215 0 8.43-.025 12.644v16.477c0 .813-.736 1.498-1.549 1.523h-8.048c-.381 0-.762 0-1.117-.203-.508-.254-.813-.812-.813-1.396v-13.278c0-4.012-.025-8.023.026-12.035 0-1.396 0-2.792-.076-4.189-.077-1.04-.28-2.082-.813-2.996a3.809 3.809 0 0 0-1.676-1.548c-.888-.407-1.878-.483-2.843-.483-2.31.127-4.367 1.879-5.002 4.088-.482 1.752-.533 3.58-.584 5.382-.025 8.353 0 16.706 0 25.059 0 .533-.279 1.092-.736 1.346-.33.203-.736.253-1.117.253h-7.591c-.356 0-.711.026-1.041-.101a1.548 1.548 0 0 1-.99-1.168c-.051-.279-.026-.584-.026-.863v-12.187c0-4.265-.025-8.53.026-12.796.025-1.37-.026-2.716-.203-4.062-.178-1.04-.432-2.107-1.016-3.021-.584-.94-1.549-1.65-2.64-1.854-1.219-.254-2.514-.177-3.656.305-.965.406-1.727 1.219-2.209 2.133-.711 1.345-.965 2.843-1.092 4.341-.152 1.6-.127 3.225-.127 4.824v22.926c0 .838-.762 1.523-1.574 1.523h-8.353c-.635.026-1.269-.406-1.498-1.015-.127-.305-.101-.635-.101-.965v-42.4c-.026-.862.736-1.599 1.574-1.599 2.589-.025 5.179 0 7.743 0 .66-.025 1.27.407 1.524.99.152.33.101.712.127 1.067v5.002c.127 0 .177-.102.228-.204.559-1.447 1.295-2.818 2.285-4.011.939-1.041 2.057-1.93 3.301-2.564zm146.543-1.117c3.504-.254 7.109.355 10.181 2.056 2.59 1.422 4.748 3.554 6.322 6.017 1.726 2.691 2.818 5.738 3.453 8.835.66 3.301.838 6.678.584 10.03-.279 3.477-1.117 6.956-2.666 10.078-1.219 2.489-2.894 4.773-5.002 6.576-2.462 2.107-5.534 3.504-8.759 3.935-3.529.483-7.236.026-10.46-1.574-2.564-1.269-4.722-3.224-6.372-5.535-1.828-2.589-3.022-5.56-3.733-8.606-.863-3.758-1.091-7.668-.736-11.501.33-3.707 1.244-7.388 2.971-10.69 1.345-2.589 3.249-4.924 5.661-6.626 2.488-1.777 5.51-2.767 8.556-2.995zm.94 8.759c-1.498.127-2.895.99-3.732 2.26-.914 1.32-1.371 2.868-1.676 4.442-.381 2.031-.483 4.113-.508 6.17-.025 3.681-.025 7.413.813 11.044.38 1.472.863 2.97 1.802 4.214.686.94 1.701 1.651 2.844 1.879 1.523.305 3.224-.025 4.468-1.015 1.041-.813 1.676-2.031 2.158-3.225.533-1.371.787-2.843.965-4.316.279-2.386.305-4.798.279-7.185-.051-3.376-.228-6.779-1.193-10.028-.381-1.219-.99-2.438-2.057-3.225-1.218-.914-2.742-1.142-4.163-1.015zm42.704-7.49c1.548-.863 3.351-1.244 5.103-1.295 1.878-.076 3.808.178 5.56.889 2.666 1.091 4.798 3.351 5.788 6.042.432 1.168.686 2.412.889 3.656.305 2.31.381 4.647.381 6.982v27.369c0 .305.025.584-.076.864a1.62 1.62 0 0 1-1.067.964c-.304.076-.609.051-.888.076h-7.972c-.559 0-1.067-.33-1.32-.837-.204-.356-.153-.762-.153-1.143V88.286c0-1.904-.076-3.834-.711-5.636-.406-1.168-1.193-2.26-2.335-2.768-.813-.38-1.727-.482-2.59-.406-1.523.127-2.894 1.041-3.758 2.234-.533.737-.888 1.575-1.167 2.438-.61 1.777-.788 3.681-.838 5.535-.026 1.7 0 3.427-.026 5.128v19.397c.026.838-.761 1.523-1.574 1.523h-8.277a1.582 1.582 0 0 1-1.497-.939c-.153-.355-.127-.736-.127-1.117 0-14.142-.026-28.258-.026-42.4 0-.634.457-1.218 1.041-1.421.356-.127.762-.102 1.143-.102h6.601c.381 0 .761-.025 1.117.127.508.203.965.686.965 1.27v6.423c.152.026.203-.127.253-.228.61-1.498 1.346-2.945 2.311-4.215.863-1.219 1.955-2.234 3.25-2.945zm-96.122-.076c.33-.33.787-.457 1.244-.457h26.912c.457 0 .965-.025 1.396.254.457.254.737.787.737 1.295v4.976c.051 1.142-.686 2.082-1.27 2.996a11141.435 11141.435 0 0 1-15.106 21.529c4.443-.076 8.962.457 13.126 2.133.914.355 1.777.787 2.64 1.269.94.483 1.473 1.549 1.422 2.59v5.662c0 .33.026.66-.051.99-.152.609-.66 1.142-1.294 1.219-.28.05-.559-.051-.787-.178-8.734-4.494-19.626-4.621-28.436-.178-.406.178-.812.508-1.295.406-.736-.152-1.269-.888-1.244-1.65v-6.449c0-1.345.254-2.742.99-3.884l1.371-1.98c5.053-7.262 10.131-14.523 15.183-21.784h-14.396c-.457 0-.914-.152-1.218-.508-.279-.304-.406-.736-.381-1.142v-5.992c.025-.355.152-.813.457-1.117z" fill="#fff"/></svg>