<svg width="600" height="200" viewBox="0 0 600 200" fill="none" xmlns="http://www.w3.org/2000/svg">
<rect width="600" height="200" fill="white"/>
<rect width="600" height="200" fill="#F29C3B"/>
<path fill-rule="evenodd" clip-rule="evenodd" d="M475.829 51.1933C477.987 50.7871 480.17 50.4062 482.328 50C482.328 66.6296 482.328 83.2592 482.328 99.8889C482.354 101.336 482.278 103.519 482.43 104.967C482.76 107.328 483.725 109.207 486.416 109.511C487.787 109.689 489.133 109.283 490.402 108.8C490.935 110.298 491.494 111.796 492.027 113.294C489.818 114.335 487.406 114.843 484.969 114.995C483.598 115.071 482.176 114.995 480.856 114.564C477.581 113.497 475.956 110.552 475.829 107.226C475.829 88.5655 475.829 69.8794 475.829 51.1933Z" fill="white"/>
<path fill-rule="evenodd" clip-rule="evenodd" d="M456.483 50.8124C457.905 50.5331 459.453 50.8632 460.621 51.701C461.586 52.3865 462.322 53.3767 462.678 54.5192C463.059 55.7886 462.982 57.185 462.449 58.3783C461.84 59.7239 460.672 60.7902 459.301 61.2726C457.955 61.755 456.407 61.6788 455.137 61.0441C454.071 60.5109 453.157 59.6477 452.624 58.556C451.964 57.2358 451.887 55.6109 452.395 54.2399C453.055 52.4881 454.655 51.1425 456.483 50.8124Z" fill="white"/>
<path fill-rule="evenodd" clip-rule="evenodd" d="M402.582 70.9203C404.207 70.4126 405.908 70.0825 407.609 70.1587C409.183 70.2095 410.758 70.6664 412.052 71.5804C413.373 72.5198 414.337 73.8654 414.972 75.338C417.156 73.6623 419.847 72.2659 422.792 71.2504C424.493 70.6411 426.829 70.2602 428.631 70.3364C430.155 70.3872 431.652 70.8696 432.897 71.7328C433.912 72.4183 434.75 73.3577 435.435 74.3478C435.994 75.1349 436.476 75.9727 436.806 76.8867C437.035 77.5214 437.086 78.2069 437.136 78.8924C437.136 90.1904 437.187 101.514 437.187 112.812C437.187 113.218 436.959 113.751 436.476 113.751C434.928 113.751 433.354 113.751 431.805 113.751C431.526 113.751 431.221 113.726 431.018 113.523C430.815 113.345 430.739 113.066 430.764 112.812C430.764 103.037 430.764 93.237 430.764 83.4624C430.764 82.7007 430.84 81.9137 430.688 81.152C430.561 80.4157 430.256 79.7302 429.901 79.0701C429.317 78.0038 428.454 77.039 427.362 76.4805C426.016 75.7696 424.823 75.7188 423.35 76.0489C420.913 76.582 418.527 78.0038 416.47 79.6033C416.47 90.4443 416.47 101.311 416.47 112.152C416.445 112.482 416.521 112.837 416.394 113.167C416.242 113.523 415.835 113.726 415.48 113.726C413.957 113.726 412.459 113.726 410.935 113.726C410.605 113.726 410.25 113.7 409.971 113.472C409.742 113.294 409.666 112.964 409.666 112.685C409.666 102.275 409.666 91.8914 409.666 81.4821C409.463 79.9333 408.955 78.3338 407.889 77.166C407.051 76.2266 405.807 75.7442 404.563 75.7188C402.836 75.668 401.161 76.252 399.612 76.9629C398.139 77.6737 396.743 78.5623 395.448 79.6033C395.372 90.4189 395.296 101.26 395.22 112.075C395.22 112.532 395.245 112.989 395.093 113.421C394.991 113.7 394.763 113.954 394.458 113.954C392.859 113.954 391.234 113.954 389.634 113.954C389.38 113.954 389.101 113.903 388.923 113.7C388.746 113.472 388.72 113.142 388.72 112.863C388.72 104.433 388.72 96.0044 388.72 87.5753C388.695 85.4681 388.746 83.3862 388.695 81.2789C388.619 79.5271 388.466 77.7753 388.009 76.0743C387.806 75.3634 387.527 74.6779 387.171 74.0178C387.019 73.7385 386.994 73.4084 387.146 73.1292C387.324 72.7991 387.654 72.6468 387.958 72.469C389.101 71.8851 390.218 71.3266 391.335 70.7426C391.64 70.5649 392.071 70.4126 392.402 70.6157C392.732 70.8188 392.782 71.2504 392.884 71.5804C393.341 72.8499 393.773 74.1447 394.204 75.4141C396.768 73.4846 399.561 71.9105 402.582 70.9203Z" fill="white"/>
<path fill-rule="evenodd" clip-rule="evenodd" d="M360.92 70.768C364.525 69.9809 368.333 70.4125 371.786 71.6312C372.725 71.9358 373.614 72.3167 374.503 72.7229C374.985 72.9768 375.442 73.383 375.569 73.9162C375.645 74.2462 375.645 74.6017 375.493 74.9063C375.061 75.8203 374.604 76.7343 374.172 77.6483C374.02 77.9784 373.716 78.2069 373.385 78.3338C373.005 78.4607 372.598 78.3592 372.243 78.1815C370.897 77.5468 369.501 77.0136 368.079 76.6328C366.302 76.1758 364.398 75.9473 362.57 76.3027C361.25 76.5566 359.955 77.1659 359.041 78.1561C357.949 79.2732 357.416 80.9235 357.619 82.4722C357.797 84.224 358.812 85.7981 360.183 86.8644C360.716 87.296 361.326 87.6515 361.935 87.9561C364.931 89.5049 367.927 91.0536 370.923 92.6023C373.335 94.1256 375.391 96.2836 376.483 98.9241C377.194 100.651 377.473 102.555 377.27 104.408C377.016 106.82 375.848 109.08 374.198 110.831C373.919 111.085 373.665 111.339 373.385 111.593C372.167 112.634 370.745 113.472 369.247 114.03C367.622 114.665 365.87 114.97 364.119 115.071C359.802 115.274 355.563 114.081 351.653 112.329C351.196 112.101 350.688 111.949 350.332 111.593C349.952 111.238 349.85 110.654 350.002 110.171C350.206 109.537 350.536 108.927 350.789 108.318C351.069 107.709 351.272 106.998 351.78 106.541C352.034 106.287 352.414 106.16 352.744 106.338C353.43 106.642 354.09 106.998 354.776 107.277C356.172 107.886 357.619 108.394 359.117 108.75C361.3 109.257 363.585 109.41 365.794 109.13C367.14 108.8 368.384 108.013 369.247 106.947C370.288 105.728 370.796 104.078 370.643 102.504C370.491 101.057 369.78 99.7111 368.765 98.6956C367.901 97.807 366.81 97.1723 365.667 96.6391C364.169 95.9028 362.671 95.1665 361.199 94.4303C360.539 94.0748 359.828 93.8971 359.142 93.5671C356.299 92.2976 353.785 90.165 352.313 87.3722C351.551 85.925 351.094 84.3255 350.993 82.7007C350.891 80.8981 351.246 79.0701 352.059 77.4452C353.354 74.7286 355.791 72.6975 358.508 71.5042C359.295 71.1488 360.107 70.9711 360.92 70.768Z" fill="white"/>
<path fill-rule="evenodd" clip-rule="evenodd" d="M506.372 71.7074C508.276 70.9457 510.358 70.5903 512.414 70.6411C514.547 70.6664 516.705 71.0473 518.66 71.8851C520.259 72.5452 521.706 73.51 522.95 74.7032C525.565 77.1913 527.165 80.568 528.003 84.0209C528.815 87.2453 529.018 90.5966 528.968 93.8971C519.98 93.8971 510.967 93.8971 501.979 93.8971C502.005 97.35 502.843 100.904 504.848 103.748C505.585 104.84 506.524 105.754 507.54 106.566C509.139 107.785 511.069 108.597 513.074 108.927C515.131 109.283 517.263 109.207 519.294 108.724C521.63 108.216 523.915 107.277 525.946 106.008C526.378 106.998 526.81 107.988 527.241 108.978C527.47 109.537 527.774 110.095 527.952 110.679C526.353 111.72 524.652 112.558 522.849 113.193C521.122 113.853 519.345 114.284 517.517 114.564C515.232 114.868 512.897 114.792 510.612 114.36C507.108 113.726 503.782 111.999 501.294 109.46C498.806 106.922 497.105 103.697 496.14 100.295C495.353 97.5785 495.023 94.7604 495.023 91.9422C495.023 87.6007 495.911 83.1831 498.019 79.3494C499.872 75.9727 502.792 73.1038 506.372 71.7074ZM506.854 77.8007C505.229 78.9178 504.036 80.568 503.249 82.3706C502.436 84.2494 502.081 86.3059 502.056 88.3624C508.682 88.3624 515.308 88.3624 521.935 88.3624C521.91 86.5852 521.63 84.808 521.046 83.1069C520.462 81.482 519.599 79.9587 518.381 78.7147C517.086 77.3945 515.385 76.4805 513.557 76.2266C511.246 75.8965 508.784 76.4297 506.854 77.8007Z" fill="white"/>
<path fill-rule="evenodd" clip-rule="evenodd" d="M446.733 72.0882C446.708 71.7835 447.013 71.555 447.317 71.6058C451.862 71.6058 456.381 71.6058 460.926 71.6058C461.23 71.5804 461.51 71.8343 461.459 72.1389C461.459 85.7473 461.459 99.3303 461.459 112.939C461.484 113.269 461.23 113.599 460.875 113.599C459.098 113.599 457.295 113.599 455.518 113.599C455.289 113.599 455.036 113.599 454.909 113.421C454.782 113.294 454.756 113.116 454.756 112.964C454.756 100.981 454.756 88.9971 454.756 77.0136C452.268 77.0136 449.755 77.0136 447.267 77.0136C447.013 77.039 446.759 76.8105 446.759 76.5312C446.733 75.0333 446.733 73.5607 446.733 72.0882Z" fill="white"/>
<path fill-rule="evenodd" clip-rule="evenodd" d="M242.963 117.712C245.274 117.661 247.61 117.788 249.869 118.27C250.758 118.473 251.646 118.702 252.459 119.108C252.89 119.337 253.347 119.667 253.5 120.149C253.83 121.165 253.804 122.231 253.779 123.272C253.703 124.897 253.424 126.522 253.068 128.096C252.256 131.599 250.91 135.027 249.031 138.099C247.838 140.028 246.416 141.856 244.69 143.354C244.258 143.761 243.776 144.167 243.167 144.218C242.836 144.268 242.481 144.116 242.354 143.811C242.227 143.481 242.278 143.126 242.405 142.796C243.852 139.165 245.274 135.509 246.289 131.726C246.543 130.787 246.746 129.822 246.899 128.883C247.051 127.74 247.203 126.572 246.873 125.455C246.721 124.897 246.289 124.465 245.782 124.211C244.918 123.78 243.954 123.602 243.014 123.475C240.678 123.196 238.292 123.297 235.956 123.424C233.341 123.602 230.726 123.881 228.136 124.211C227.756 124.262 227.324 124.211 227.045 123.932C226.791 123.678 226.816 123.272 226.968 122.993C227.222 122.485 227.679 122.155 228.136 121.876C230.142 120.53 232.376 119.591 234.687 118.956C237.378 118.118 240.171 117.763 242.963 117.712Z" fill="white"/>
<path fill-rule="evenodd" clip-rule="evenodd" d="M110.942 120.555C111.373 120.454 111.856 120.555 112.237 120.758C113.735 121.571 115.182 122.434 116.68 123.221C128.105 129.289 140.418 133.681 153.087 136.423C160.45 137.997 167.94 139.013 175.455 139.445C190.51 140.333 205.693 138.581 220.24 134.621C225.902 133.072 231.462 131.168 236.87 128.934C237.429 128.705 237.987 128.426 238.622 128.375C239.485 128.273 240.45 128.654 240.881 129.441C241.237 130.025 241.186 130.787 240.805 131.371C240.399 132.031 239.714 132.437 239.104 132.869C232.757 137.413 225.699 140.866 218.387 143.507C213.309 145.335 208.079 146.782 202.798 147.848C195.232 149.372 187.514 150.133 179.796 149.981C172.256 149.854 164.741 148.94 157.403 147.239C144.937 144.37 132.979 139.191 122.367 132.031C118.533 129.467 114.902 126.623 111.45 123.577C111.043 123.17 110.536 122.866 110.231 122.358C110.002 121.977 109.952 121.495 110.18 121.088C110.358 120.835 110.637 120.657 110.942 120.555Z" fill="white"/>
<path fill-rule="evenodd" clip-rule="evenodd" d="M83.6744 69.7524C86.1371 68.9146 88.7522 68.5338 91.3672 68.4576C93.4999 68.3815 95.6325 68.61 97.689 69.0923C99.3393 69.4986 100.939 70.0571 102.411 70.8949C104.646 72.139 106.474 74.0939 107.413 76.4805C108.098 78.2323 108.352 80.1364 108.428 82.0152C108.505 83.7924 108.479 85.595 108.479 87.3722C108.479 91.079 108.479 94.7857 108.479 98.4925C108.479 99.9904 108.428 101.514 108.835 102.961C109.216 104.383 110.003 105.652 110.866 106.82C111.272 107.404 111.78 107.912 111.983 108.597C112.135 109.08 112.034 109.664 111.627 109.994C109.698 111.644 107.768 113.294 105.89 114.97C105.458 115.325 105.052 115.782 104.493 115.96C103.985 116.087 103.401 116.036 102.995 115.681C102.005 114.817 101.015 113.903 100.203 112.888C99.5424 112.025 98.9585 111.111 98.3491 110.222C96.5211 112.075 94.5154 113.853 92.1289 114.944C90.504 115.706 88.7268 116.087 86.9242 116.239C84.9947 116.392 83.0397 116.392 81.1356 115.96C79.5615 115.605 78.0635 114.97 76.7687 114.03C75.6516 113.243 74.7122 112.202 74.0013 111.06C72.8588 109.232 72.2495 107.099 72.0718 104.967C71.8433 102.352 72.148 99.635 73.1635 97.1977C74.1283 94.8365 75.8293 92.78 77.9112 91.2821C79.3076 90.2665 80.8817 89.5303 82.5066 88.9717C83.8268 88.5147 85.1978 88.2354 86.5688 87.9562C89.9201 87.3215 93.3222 87.0676 96.6989 86.6867C96.6735 85.0619 96.8004 83.437 96.5465 81.8121C96.3688 80.8727 96.0641 79.9333 95.4294 79.1971C94.49 78.0546 92.9921 77.496 91.5449 77.3691C89.7677 77.2421 87.9144 77.6483 86.4672 78.7401C85.5024 79.4509 84.7915 80.5173 84.4361 81.6598C84.2584 82.0914 84.233 82.5991 84.0045 83.0054C83.8014 83.3862 83.4459 83.767 83.0143 83.8686C82.7604 83.9448 82.5066 83.8686 82.2527 83.8686C79.9677 83.6147 77.7081 83.3862 75.4231 83.1323C75.0423 83.0815 74.6614 83.1069 74.306 82.9292C73.9252 82.7515 73.5951 82.4722 73.4428 82.0914C73.2651 81.6852 73.392 81.2282 73.4936 80.7965C73.9506 78.6893 74.8138 76.6582 76.1086 74.9571C77.962 72.4437 80.7293 70.7172 83.6744 69.7524ZM90.047 94.2018C88.6252 94.6334 87.2289 95.3189 86.1879 96.4106C85.8325 96.7407 85.5786 97.1469 85.2993 97.5277C84.4107 98.9749 84.1314 100.752 84.233 102.428C84.3092 103.799 84.69 105.195 85.604 106.261C86.3656 107.175 87.5081 107.759 88.676 107.861C90.1486 108.039 91.6973 107.582 92.8652 106.668C94.0077 105.855 94.8455 104.687 95.4548 103.443C96.0388 102.225 96.3688 100.904 96.5211 99.5842C96.7243 97.5277 96.6481 95.4459 96.6735 93.3894C94.4393 93.3894 92.1797 93.5417 90.047 94.2018Z" fill="white"/>
<path fill-rule="evenodd" clip-rule="evenodd" d="M195.131 69.27C197.213 68.7115 199.371 68.483 201.529 68.4322C203.382 68.3814 205.261 68.5845 207.089 68.9654C208.663 69.3208 210.187 69.8032 211.634 70.5395C212.852 71.1488 213.995 71.9358 214.934 72.926C216.001 73.9669 216.813 75.2618 217.346 76.6581C217.981 78.3592 218.209 80.2126 218.286 82.0152C218.362 83.8939 218.311 85.7981 218.336 87.6769C218.336 91.8152 218.336 95.9536 218.336 100.092C218.336 101.488 218.565 102.91 219.123 104.205C219.707 105.5 220.596 106.642 221.459 107.785C221.789 108.242 222.043 108.826 221.891 109.41C221.815 109.714 221.637 109.943 221.408 110.146C219.606 111.669 217.829 113.193 216.051 114.741C215.645 115.071 215.29 115.478 214.833 115.757C214.249 116.163 213.36 116.138 212.827 115.655C211.71 114.69 210.644 113.675 209.78 112.482C209.247 111.745 208.739 110.984 208.232 110.222C206.277 112.202 204.144 114.081 201.554 115.147C199.803 115.884 197.924 116.188 196.02 116.29C194.09 116.392 192.161 116.315 190.307 115.782C188.784 115.351 187.337 114.64 186.143 113.624C185.077 112.736 184.188 111.644 183.528 110.425C182.691 108.826 182.208 107.074 182.005 105.271C181.675 102.072 182.132 98.721 183.706 95.9028C185.153 93.237 187.54 91.1297 190.282 89.8349C191.805 89.0986 193.455 88.5909 195.106 88.2354C198.889 87.3722 202.748 87.0929 206.581 86.6867C206.531 84.8333 206.759 82.9292 206.277 81.1266C206.048 80.2633 205.617 79.4763 204.982 78.8416C203.992 77.9022 202.595 77.4452 201.25 77.369C199.523 77.2929 197.746 77.6991 196.35 78.74C195.233 79.5525 194.496 80.7965 194.166 82.1421C194.09 82.5483 193.963 82.9799 193.709 83.31C193.455 83.6654 193.049 83.9447 192.592 83.9193C189.952 83.64 187.311 83.3608 184.696 83.0815C183.909 82.9799 183.148 82.2691 183.3 81.4312C183.808 78.4861 185.128 75.668 187.261 73.5607C189.368 71.3773 192.211 70.0317 195.131 69.27ZM199.828 94.2018C198.152 94.7349 196.527 95.6235 195.486 97.0707C194.623 98.1878 194.242 99.5842 194.115 100.955C194.014 102.377 194.141 103.875 194.776 105.195C195.283 106.261 196.172 107.15 197.289 107.556C198.787 108.115 200.488 107.962 201.884 107.226C203.332 106.465 204.398 105.17 205.16 103.748C205.845 102.453 206.251 101.031 206.404 99.5842C206.632 97.5277 206.531 95.4458 206.556 93.3893C204.296 93.3893 202.011 93.5417 199.828 94.2018Z" fill="white"/>
<path fill-rule="evenodd" clip-rule="evenodd" d="M134.884 70.0317C136.255 69.3462 137.778 68.9908 139.276 68.8892C140.901 68.7877 142.576 68.9146 144.125 69.4224C146.004 70.0063 147.603 71.2504 148.822 72.7737C149.787 73.9924 150.548 75.3887 151.158 76.8105C151.666 75.4903 152.376 74.2209 153.29 73.1038C154.433 71.7074 155.931 70.5903 157.581 69.8794C160.729 68.5338 164.411 68.5084 167.584 69.8032C169.844 70.7172 171.799 72.3675 173.017 74.5001C173.83 75.9473 174.236 77.6229 174.414 79.2732C174.642 81.2028 174.566 83.1577 174.566 85.0872C174.515 89.3018 174.566 93.5163 174.541 97.7308C174.541 103.215 174.541 108.724 174.541 114.208C174.541 115.021 173.805 115.706 172.992 115.731C170.301 115.731 167.635 115.731 164.944 115.731C164.563 115.731 164.182 115.731 163.827 115.528C163.319 115.274 163.014 114.716 163.014 114.132C163.014 109.714 163.014 105.297 163.014 100.854C163.014 96.8422 162.989 92.8308 163.04 88.8194C163.04 87.423 163.04 86.0266 162.964 84.6302C162.887 83.5893 162.684 82.5484 162.151 81.6344C161.77 80.9743 161.186 80.4157 160.475 80.0857C159.587 79.6794 158.597 79.6033 157.632 79.6033C155.322 79.7302 153.265 81.482 152.63 83.6909C152.148 85.4427 152.097 87.2707 152.046 89.0733C152.021 97.4262 152.046 105.779 152.046 114.132C152.046 114.665 151.767 115.224 151.31 115.478C150.98 115.681 150.574 115.731 150.193 115.731C147.654 115.731 145.141 115.731 142.602 115.731C142.246 115.731 141.891 115.757 141.561 115.63C141.053 115.452 140.672 114.995 140.571 114.462C140.52 114.183 140.545 113.878 140.545 113.599C140.545 109.537 140.545 105.474 140.545 101.412C140.545 97.1469 140.52 92.8816 140.571 88.6163C140.596 87.2453 140.545 85.8997 140.368 84.5541C140.19 83.5131 139.936 82.4468 139.352 81.5328C138.768 80.5934 137.803 79.8825 136.712 79.6794C135.493 79.4255 134.198 79.5017 133.056 79.9841C132.091 80.3903 131.329 81.2028 130.847 82.1168C130.136 83.4624 129.882 84.9603 129.755 86.4582C129.603 88.0577 129.628 89.6826 129.628 91.2821C129.628 98.9241 129.628 106.566 129.628 114.208C129.628 115.046 128.866 115.731 128.054 115.731C125.261 115.731 122.494 115.731 119.701 115.731C119.066 115.757 118.432 115.325 118.203 114.716C118.076 114.411 118.102 114.081 118.102 113.751C118.102 99.6096 118.102 85.4935 118.102 71.3519C118.076 70.4887 118.838 69.7524 119.676 69.7524C122.265 69.727 124.855 69.7524 127.419 69.7524C128.079 69.727 128.689 70.1587 128.943 70.7426C129.095 71.0727 129.044 71.4535 129.07 71.8089C129.07 73.4846 129.07 75.1348 129.07 76.8105C129.197 76.8105 129.247 76.7089 129.298 76.6074C129.857 75.1602 130.593 73.7892 131.583 72.596C132.522 71.555 133.64 70.6664 134.884 70.0317Z" fill="white"/>
<path fill-rule="evenodd" clip-rule="evenodd" d="M281.427 68.9146C284.931 68.6607 288.536 69.2701 291.608 70.9711C294.198 72.3929 296.356 74.5255 297.93 76.9882C299.656 79.6794 300.748 82.7261 301.383 85.8235C302.043 89.1241 302.221 92.5008 301.967 95.8521C301.688 99.3303 300.85 102.809 299.301 105.931C298.082 108.42 296.407 110.704 294.299 112.507C291.837 114.614 288.765 116.011 285.54 116.442C282.011 116.925 278.304 116.468 275.08 114.868C272.516 113.599 270.358 111.644 268.708 109.333C266.88 106.744 265.686 103.773 264.975 100.727C264.112 96.9692 263.884 93.0593 264.239 89.2256C264.569 85.5189 265.483 81.8375 267.21 78.5369C268.555 75.9473 270.459 73.6115 272.871 71.9105C275.359 70.1333 278.381 69.1431 281.427 68.9146ZM282.367 77.6737C280.869 77.8007 279.472 78.6639 278.635 79.9333C277.721 81.2535 277.264 82.8023 276.959 84.3764C276.578 86.4075 276.476 88.4893 276.451 90.5458C276.426 94.2272 276.426 97.9593 277.264 101.59C277.644 103.062 278.127 104.56 279.066 105.804C279.752 106.744 280.767 107.455 281.91 107.683C283.433 107.988 285.134 107.658 286.378 106.668C287.419 105.855 288.054 104.637 288.536 103.443C289.069 102.072 289.323 100.6 289.501 99.1272C289.78 96.7407 289.806 94.3287 289.78 91.9422C289.729 88.5655 289.552 85.1634 288.587 81.9136C288.206 80.695 287.597 79.4763 286.53 78.6893C285.312 77.7753 283.788 77.5468 282.367 77.6737Z" fill="white"/>
<path fill-rule="evenodd" clip-rule="evenodd" d="M325.071 70.184C326.619 69.3208 328.422 68.94 330.174 68.8892C332.052 68.813 333.982 69.0669 335.734 69.7778C338.4 70.8695 340.532 73.1291 341.522 75.8203C341.954 76.9882 342.208 78.2323 342.411 79.4763C342.716 81.7867 342.792 84.1225 342.792 86.4582C342.792 95.5728 342.792 104.713 342.792 113.827C342.792 114.132 342.817 114.411 342.716 114.691C342.538 115.147 342.132 115.528 341.649 115.655C341.345 115.731 341.04 115.706 340.761 115.731C338.095 115.731 335.455 115.731 332.789 115.731C332.23 115.731 331.722 115.401 331.469 114.894C331.265 114.538 331.316 114.132 331.316 113.751C331.316 105.271 331.316 96.7914 331.316 88.2862C331.316 86.3821 331.24 84.4525 330.605 82.6499C330.199 81.482 329.412 80.3903 328.27 79.8825C327.457 79.5017 326.543 79.4002 325.68 79.4763C324.157 79.6033 322.786 80.5173 321.922 81.7105C321.389 82.4468 321.034 83.2846 320.755 84.1478C320.145 85.9251 319.967 87.8292 319.917 89.6826C319.891 91.3836 319.917 93.1101 319.891 94.8111C319.891 101.285 319.891 107.734 319.891 114.208C319.917 115.046 319.13 115.731 318.317 115.731C315.55 115.731 312.782 115.731 310.04 115.731C309.406 115.757 308.796 115.376 308.543 114.792C308.39 114.437 308.416 114.056 308.416 113.675C308.416 99.5334 308.39 85.4173 308.39 71.2758C308.39 70.641 308.847 70.0571 309.431 69.854C309.787 69.727 310.193 69.7524 310.574 69.7524C312.782 69.7524 314.966 69.7524 317.175 69.7524C317.556 69.7524 317.936 69.727 318.292 69.8794C318.8 70.0825 319.257 70.5649 319.257 71.1488C319.257 73.2815 319.257 75.4395 319.257 77.5722C319.409 77.5976 319.46 77.4452 319.51 77.3437C320.12 75.8457 320.856 74.3986 321.821 73.1291C322.684 71.9105 323.776 70.8949 325.071 70.184Z" fill="white"/>
<path fill-rule="evenodd" clip-rule="evenodd" d="M228.949 70.1079C229.279 69.7778 229.736 69.6509 230.193 69.6509C239.155 69.6509 248.143 69.6509 257.105 69.6509C257.562 69.6509 258.07 69.6255 258.501 69.9048C258.958 70.1586 259.238 70.6918 259.238 71.1996C259.238 72.8499 259.238 74.5255 259.238 76.1758C259.289 77.3183 258.552 78.2577 257.968 79.1716C252.941 86.3567 247.914 93.5163 242.862 100.701C247.305 100.625 251.824 101.158 255.988 102.834C256.902 103.189 257.765 103.621 258.628 104.103C259.568 104.586 260.101 105.652 260.05 106.693C260.05 108.572 260.05 110.476 260.05 112.355C260.05 112.685 260.076 113.015 259.999 113.345C259.847 113.954 259.339 114.487 258.705 114.564C258.425 114.614 258.146 114.513 257.918 114.386C249.184 109.892 238.292 109.765 229.482 114.208C229.076 114.386 228.67 114.716 228.187 114.614C227.451 114.462 226.918 113.726 226.943 112.964C226.943 110.806 226.943 108.673 226.943 106.515C226.943 105.17 227.197 103.773 227.933 102.631C228.39 101.971 228.847 101.311 229.304 100.651C234.357 93.3893 239.435 86.1282 244.487 78.867C239.688 78.867 234.89 78.867 230.091 78.867C229.634 78.867 229.177 78.7147 228.873 78.3592C228.594 78.0545 228.467 77.6229 228.492 77.2167C228.492 75.211 228.492 73.2307 228.492 71.225C228.517 70.8695 228.644 70.4125 228.949 70.1079Z" fill="white"/>
</svg>
