<svg width="1550" height="349" fill="none" xmlns="http://www.w3.org/2000/svg"><path d="M83.14 277c-2.2 0-4.1-.7-5.7-2.1-1.4-1.4-2.1-3.2-2.1-5.4V115.9h-52.8c-2.2 0-4.1-.7-5.7-2.1-1.4-1.4-2.1-3.2-2.1-5.4V74.8c0-2.2.7-4 2.1-5.4 1.6-1.6 3.5-2.4 5.7-2.4h162.9c2.2 0 4 .8 5.4 2.4 1.6 1.4 2.4 3.2 2.4 5.4v33.6c0 2.2-.8 4-2.4 5.4-1.4 1.4-3.2 2.1-5.4 2.1h-52.8v153.6c0 2.2-.8 4-2.4 5.4-1.4 1.4-3.2 2.1-5.4 2.1h-41.7zm164.963 3c-24.4 0-43.6-6.5-57.6-19.5-14-13.2-21.2-32.3-21.6-57.3v-9.3c.8-23.8 8.2-42.4 22.2-55.8 14-13.4 32.9-20.1 56.7-20.1 17.2 0 31.7 3.5 43.5 10.5 12 6.8 20.9 16.3 26.7 28.5 6 12 9 25.7 9 41.1v7.5c0 2.2-.8 4.1-2.4 5.7-1.4 1.4-3.2 2.1-5.4 2.1h-95.1v1.8c.2 9 2.3 16.3 6.3 21.9 4 5.4 9.7 8.1 17.1 8.1 4.8 0 8.6-.9 11.4-2.7 3-2 5.8-4.5 8.4-7.5 1.8-2 3.2-3.2 4.2-3.6 1.2-.6 3-.9 5.4-.9h39.3c1.8 0 3.3.6 4.5 1.8 1.4 1 2.1 2.3 2.1 3.9 0 5.2-3 11.3-9 18.3-5.8 7-14.4 13-25.8 18-11.2 5-24.5 7.5-39.9 7.5zm23.7-97.2v-.6c0-9.6-2.1-17-6.3-22.2-4.2-5.4-10.1-8.1-17.7-8.1s-13.5 2.7-17.7 8.1c-4 5.2-6 12.6-6 22.2v.6h47.7zM411.507 280c-22.8 0-41.3-6-55.5-18-14-12.2-21.5-29.1-22.5-50.7l-.3-12 .3-12.3c.8-21.6 8.3-38.5 22.5-50.7 14.2-12.2 32.7-18.3 55.5-18.3 17.4 0 32 3.1 43.8 9.3 11.8 6.2 20.6 13.6 26.4 22.2 5.8 8.4 8.9 16.1 9.3 23.1.2 2.2-.5 4.1-2.1 5.7-1.6 1.4-3.5 2.1-5.7 2.1h-40.2c-2.2 0-3.9-.5-5.1-1.5-1.2-1-2.3-2.6-3.3-4.8-2.2-5.6-5.1-9.7-8.7-12.3-3.4-2.6-7.8-3.9-13.2-3.9-15.4 0-23.4 10.2-24 30.6l-.3 11.4.3 9.9c.2 10.4 2.3 18.1 6.3 23.1 4 4.8 9.9 7.2 17.7 7.2 5.8 0 10.3-1.2 13.5-3.6 3.4-2.6 6.2-6.8 8.4-12.6 1-2.2 2.1-3.8 3.3-4.8 1.2-1 2.9-1.5 5.1-1.5h40.2c2 0 3.8.7 5.4 2.1 1.6 1.4 2.4 3.1 2.4 5.1 0 6.2-2.8 13.7-8.4 22.5-5.4 8.6-14.1 16.2-26.1 22.8-12 6.6-27 9.9-45 9.9zm98.032-3c-2.2 0-4.1-.7-5.7-2.1-1.4-1.4-2.1-3.2-2.1-5.4v-198c0-2.2.7-4 2.1-5.4 1.6-1.4 3.5-2.1 5.7-2.1h40.5c2.2 0 4 .7 5.4 2.1 1.6 1.4 2.4 3.2 2.4 5.4v66.9c11.6-13.6 27.3-20.4 47.1-20.4 11.4 0 21.7 2.6 30.9 7.8 9.2 5.2 16.4 12.9 21.6 23.1 5.2 10.2 7.8 22.5 7.8 36.9v83.7c0 2.2-.8 4-2.4 5.4-1.4 1.4-3.2 2.1-5.4 2.1h-40.8c-2 0-3.8-.7-5.4-2.1-1.4-1.6-2.1-3.4-2.1-5.4v-81.9c0-8.8-2.2-15.6-6.6-20.4-4.4-5-10.7-7.5-18.9-7.5-8 0-14.3 2.5-18.9 7.5-4.6 4.8-6.9 11.6-6.9 20.4v81.9c0 2.2-.8 4-2.4 5.4-1.4 1.4-3.2 2.1-5.4 2.1h-40.5zm283.289 57c-2.2 0-4.1-.7-5.7-2.1-1.4-1.4-2.1-3.2-2.1-5.4v-66.3c-9.6 13.2-24 19.8-43.2 19.8-19.4 0-34.7-6.2-45.9-18.6-11.2-12.4-17.2-29.4-18-51l-.3-11.4.3-11.1c.8-22.4 6.7-39.6 17.7-51.6 11.2-12.2 26.6-18.3 46.2-18.3 10.4 0 19.4 1.9 27 5.7 7.8 3.8 14.2 9 19.2 15.6v-10.8c0-2.2.7-4 2.1-5.4 1.6-1.4 3.5-2.1 5.7-2.1h35.7c2.2 0 4 .7 5.4 2.1 1.4 1.4 2.1 3.2 2.1 5.4v198c0 2.2-.7 4-2.1 5.4-1.4 1.4-3.2 2.1-5.4 2.1h-38.7zm-33.9-95.7c8.4 0 14.7-2.5 18.9-7.5 4.4-5.2 6.8-11.7 7.2-19.5.4-5.2.6-8.9.6-11.1 0-2.4-.2-6.2-.6-11.4-.4-8.6-2.7-15.6-6.9-21-4-5.4-10.4-8.1-19.2-8.1-9 0-15.4 2.7-19.2 8.1-3.8 5.2-6 12.5-6.6 21.9-.2 2-.3 5.1-.3 9.3 0 4.2.1 7.3.3 9.3.6 9.4 2.8 16.8 6.6 22.2 3.8 5.2 10.2 7.8 19.2 7.8zM915.464 280c-17.6 0-31.8-5.9-42.6-17.7-10.8-11.8-16.2-28.5-16.2-50.1v-83.7c0-2.2.7-4 2.1-5.4 1.6-1.4 3.4-2.1 5.4-2.1h39.9c2.2 0 4 .7 5.4 2.1 1.6 1.4 2.4 3.2 2.4 5.4v81.9c0 18.6 8.3 27.9 24.9 27.9 8 0 14.2-2.4 18.6-7.2 4.6-5 6.9-11.9 6.9-20.7v-81.9c0-2.2.7-4 2.1-5.4 1.6-1.4 3.5-2.1 5.7-2.1h39.596c2.2 0 4 .7 5.4 2.1 1.4 1.4 2.1 3.2 2.1 5.4v141c0 2-.7 3.8-2.1 5.4-1.4 1.4-3.2 2.1-5.4 2.1h-36.596c-2.2 0-4.1-.7-5.7-2.1-1.4-1.4-2.1-3.2-2.1-5.4v-11.4c-10.4 14.6-27 21.9-49.8 21.9zm193.966 0c-24.4 0-43.6-6.5-57.6-19.5-14-13.2-21.2-32.3-21.6-57.3v-9.3c.8-23.8 8.2-42.4 22.2-55.8 14-13.4 32.9-20.1 56.7-20.1 17.2 0 31.7 3.5 43.5 10.5 12 6.8 20.9 16.3 26.7 28.5 6 12 9 25.7 9 41.1v7.5c0 2.2-.8 4.1-2.4 5.7-1.4 1.4-3.2 2.1-5.4 2.1h-95.1v1.8c.2 9 2.3 16.3 6.3 21.9 4 5.4 9.7 8.1 17.1 8.1 4.8 0 8.6-.9 11.4-2.7 3-2 5.8-4.5 8.4-7.5 1.8-2 3.2-3.2 4.2-3.6 1.2-.6 3-.9 5.4-.9h39.3c1.8 0 3.3.6 4.5 1.8 1.4 1 2.1 2.3 2.1 3.9 0 5.2-3 11.3-9 18.3-5.8 7-14.4 13-25.8 18-11.2 5-24.5 7.5-39.9 7.5zm23.7-97.2v-.6c0-9.6-2.1-17-6.3-22.2-4.2-5.4-10.1-8.1-17.7-8.1s-13.5 2.7-17.7 8.1c-4 5.2-6 12.6-6 22.2v.6h47.7zm74.6 94.2c-2 0-3.8-.7-5.4-2.1-1.4-1.6-2.1-3.4-2.1-5.4V128.8c0-2.2.7-4 2.1-5.4 1.4-1.6 3.2-2.4 5.4-2.4h36.6c2.2 0 4 .8 5.4 2.4 1.6 1.4 2.4 3.2 2.4 5.4v11.4c5.6-6.2 12.1-10.9 19.5-14.1 7.6-3.4 16-5.1 25.2-5.1h13.5c2.2 0 4 .7 5.4 2.1 1.4 1.4 2.1 3.2 2.1 5.4v32.7c0 2-.7 3.8-2.1 5.4-1.4 1.4-3.2 2.1-5.4 2.1h-30.3c-8 0-14.2 2.2-18.6 6.6-4.2 4.4-6.3 10.6-6.3 18.6v75.6c0 2.2-.8 4-2.4 5.4-1.4 1.4-3.2 2.1-5.4 2.1h-39.6zm123.29-177.6c-2.2 0-4-.7-5.4-2.1-1.4-1.6-2.1-3.5-2.1-5.7V63.7c0-2.2.7-4 2.1-5.4 1.6-1.6 3.4-2.4 5.4-2.4h37.5c2.2 0 4 .8 5.4 2.4 1.6 1.4 2.4 3.2 2.4 5.4v27.9c0 2.2-.8 4.1-2.4 5.7-1.4 1.4-3.2 2.1-5.4 2.1h-37.5zm0 177.6c-2 0-3.8-.7-5.4-2.1-1.4-1.6-2.1-3.4-2.1-5.4v-141c0-2.2.7-4 2.1-5.4 1.6-1.4 3.4-2.1 5.4-2.1h37.5c2.2 0 4 .7 5.4 2.1 1.6 1.4 2.4 3.2 2.4 5.4v141c0 2.2-.8 4-2.4 5.4-1.4 1.4-3.2 2.1-5.4 2.1h-37.5zm111.61 3c-10.6 0-20.3-2-29.1-6-8.6-4.2-15.4-9.9-20.4-17.1-4.8-7.2-7.2-15.1-7.2-23.7 0-13.6 5.6-24.6 16.8-33 11.4-8.6 27-14.5 46.8-17.7l37.2-5.7v-3.6c0-7.4-1.5-12.8-4.5-16.2-3-3.4-8.1-5.1-15.3-5.1-4 0-7.4.7-10.2 2.1-2.6 1.4-5.6 3.5-9 6.3-2.6 2.2-4.9 3.8-6.9 4.8-.8 1.4-1.8 2.1-3 2.1h-34.8c-2 0-3.7-.6-5.1-1.8-1.2-1.4-1.7-3-1.5-4.8.2-5.4 2.9-11.4 8.1-18 5.2-6.8 13.1-12.6 23.7-17.4 10.6-4.8 23.7-7.2 39.3-7.2 24.8 0 43.2 5.5 55.2 16.5 12 10.8 18 25.5 18 44.1v90.9c0 2-.7 3.8-2.1 5.4-1.4 1.4-3.2 2.1-5.4 2.1h-36.9c-2 0-3.8-.7-5.4-2.1-1.4-1.6-2.1-3.4-2.1-5.4V259c-4.4 6.2-10.5 11.3-18.3 15.3-7.8 3.8-17.1 5.7-27.9 5.7zm15-35.4c8.8 0 15.9-2.9 21.3-8.7 5.6-5.8 8.4-14.2 8.4-25.2v-3.6l-24.9 4.2c-16.8 3.2-25.2 9.2-25.2 18 0 4.6 1.9 8.3 5.7 11.1 4 2.8 8.9 4.2 14.7 4.2z" fill="#000"/></svg>